<svg id="Ebene_1" data-name="Ebene 1" xmlns="http://www.w3.org/2000/svg" viewBox="0 0 254.04945 63.51307"><defs><style>.cls-1{fill:#e40521;}.cls-2{fill:#fff;}</style></defs><rect class="cls-1" width="254.04838" height="63.5127"/><path class="cls-2" d="M32.97069,45.1084l-8.5342-14.2051V45.1084h-7.2754V14.8603h7.2754V28.2138l8.628-13.3535h8.8144L31.47849,29.4238l10.9131,15.6846Z"/><path class="cls-2" d="M47.07909,20.2373a4.19468,4.19468,0,0,1-4.3369-4.0332,4.37423,4.37423,0,0,1,8.7217,0A4.20847,4.20847,0,0,1,47.07909,20.2373Zm-3.5439,24.8711V22.8369H50.624V45.1084Z"/><path class="cls-2" d="M63.09959,45.6005c-5.3633,0-7.0888-1.7031-7.0888-7.1699V28.0791h-3.4981V22.8369h3.4981V16.249l7.1357-1.8369v8.4248h4.9902v5.2422h-4.9902v8.7832c0,2.2861.6055,3.0478,2.3779,3.0478a10.91142,10.91142,0,0,0,2.4258-.3135l.4199,5.3321A22.92008,22.92008,0,0,1,63.09959,45.6005Z"/><path class="cls-2" d="M76.57619,45.6005c-5.3643,0-7.0899-1.7031-7.0899-7.1699V28.0791h-3.497V22.8369h3.497V16.249l7.1368-1.8369v8.4248h4.9902v5.2422h-4.9902v8.7832c0,2.2861.6054,3.0478,2.3789,3.0478a10.91092,10.91092,0,0,0,2.4248-.3135l.4199,5.3321A22.9271,22.9271,0,0,1,76.57619,45.6005Z"/><path class="cls-2" d="M96.51169,31.1718h-7.042c.2334-2.331,1.7256-3.8994,3.7774-3.8994C95.29979,27.2724,96.60549,28.6171,96.51169,31.1718Zm6.9961,1.4786c0-5.82522-3.0781-10.3516-10.0742-10.3516-7.1816,0-11.1465,5.0635-11.1465,11.9199,0,7.8418,4.1983,11.3818,11.7529,11.3818a24.86963,24.86963,0,0,0,8.6749-1.5234l-.6993-5.1533a17.61734,17.61734,0,0,1-6.8095,1.3896c-3.8243,0-5.6905-1.7031-5.7364-4.61622h13.8047A24.74241,24.74241,0,0,0,103.50779,32.6504Z"/><path class="cls-2" d="M106.56539,45.1084V12.3955h7.0889V45.1084Z"/><path class="cls-2" d="M131.51659,33.457c0,4.9736-2.0517,6.6768-4.8027,6.6768a9.15553,9.15553,0,0,1-2.4727-.26862V34.2636c0-3.5849,1.6787-6.2295,4.1035-6.2295C130.49119,28.0341,131.51659,29.7373,131.51659,33.457Zm7.5098-.6719c0-6.4531-2.9385-10.4414-8.4893-10.4414-3.0781,0-5.456,1.2998-6.5762,3.3164l-.0459-.04492a32.57256,32.57256,0,0,0,.3262-4.43648V12.3955h-7.0888V44.4804a34.81486,34.81486,0,0,0,9.0478,1.1201C134.54879,45.6005,139.02639,40.0888,139.02639,32.7851Z"/><path class="cls-2" d="M154.83589,31.1718H147.794c.2324-2.331,1.7255-3.8994,3.7773-3.8994S154.92869,28.6171,154.83589,31.1718Zm6.9961,1.4786c0-5.82522-3.0781-10.3516-10.0742-10.3516-7.1826,0-11.1474,5.0635-11.1474,11.9199,0,7.8418,4.1982,11.3818,11.7539,11.3818a24.85992,24.85992,0,0,0,8.6738-1.5234l-.7002-5.1533a17.60818,17.60818,0,0,1-6.8076,1.3896c-3.8252,0-5.6904-1.7031-5.7363-4.61622h13.8046A24.74241,24.74241,0,0,0,161.832,32.6504Z"/><path class="cls-2" d="M177.88279,29.0654c-3.8711-.8516-5.9228,1.29978-5.9228,6.8555v9.1875h-7.0899V22.8369h6.6231a26.63693,26.63693,0,0,1-.3262,3.94328h.0938c1.2109-2.64448,3.4042-4.66008,6.9492-4.48138Z"/><path class="cls-2" d="M192.41209,30.4541c0,1.9277-1.3066,3.0927-3.4512,3.0927-2.333,0-3.498-1.2099-3.498-3.18162,0-1.83788,1.2578-3.13668,3.4502-3.13668C191.24609,27.2285,192.41209,28.5273,192.41209,30.4541ZM201.27338,47.08c0-4.4814-2.98429-6.4531-7.97549-6.63282l-3.126-.13378c-2.6104-.0898-3.3106-.2246-3.3106-1.165a1.37205,1.37205,0,0,1,.8399-1.1201,7.46851,7.46851,0,0,0,1.3994.1338c6.6689,0,10.0273-3.1367,10.0273-7.9766a2.89843,2.89843,0,0,0-.6523-1.9717h2.65819V22.8369H193.251a16.05353,16.05353,0,0,0-4.0567-.5381c-7.0429,0-10.54,3.9433-10.54,8.5146a6.41974,6.41974,0,0,0,3.4971,6.0039,4.54844,4.54844,0,0,0-2.8457,4.1231,3.73024,3.73024,0,0,0,2.2402,3.4502,6.35331,6.35331,0,0,0-3.3594,5.1982c0,4.4366,3.7305,6.6319,10.0752,6.6319C196.23629,56.2207,201.27338,51.9189,201.27338,47.08Zm-6.996.8955c0,1.7481-1.6797,3.0918-4.9903,3.0918-2.6133,0-4.1504-1.12012-4.1504-2.7773a3.715,3.715,0,0,1,1.6309-2.7793c.2334.0449.6064,0,.8867.0449l3.6846.0899C193.48539,45.7353,194.27739,46.7216,194.27739,47.9755Z"/><path class="cls-2" d="M216.31888,31.1718h-7.044c.2334-2.331,1.7256-3.8994,3.7783-3.8994C215.105,27.2724,216.41068,28.6171,216.31888,31.1718Zm6.9951,1.4786c0-5.82522-3.0781-10.3516-10.0752-10.3516-7.1812,0-11.147,5.0635-11.147,11.9199,0,7.8418,4.1982,11.3818,11.7534,11.3818a24.8614,24.8614,0,0,0,8.6748-1.5234l-.7002-5.1533a17.613,17.613,0,0,1-6.8086,1.3896c-3.8242,0-5.6894-1.7031-5.7363-4.61622h13.8057A24.762,24.762,0,0,0,223.314,32.6504Z"/><path class="cls-2" d="M239.12548,29.0654c-3.8711-.8516-5.9229,1.29978-5.9229,6.8564v9.1866h-7.0898V22.8369h6.624a26.50516,26.50516,0,0,1-.3271,3.94328h.0937c1.2129-2.64348,3.4033-4.66008,6.9483-4.48038Z"/></svg>